<svg width="97" height="97" viewBox="0 0 97 97" fill="none" xmlns="http://www.w3.org/2000/svg">
<path d="M16.1667 52.5417H40.4167C41.4886 52.5417 42.5166 52.1158 43.2746 51.3579C44.0325 50.5999 44.4583 49.5719 44.4583 48.5V16.1667C44.4583 15.0947 44.0325 14.0667 43.2746 13.3088C42.5166 12.5508 41.4886 12.125 40.4167 12.125H16.1667C15.0947 12.125 14.0667 12.5508 13.3088 13.3088C12.5508 14.0667 12.125 15.0947 12.125 16.1667V48.5C12.125 49.5719 12.5508 50.5999 13.3088 51.3579C14.0667 52.1158 15.0947 52.5417 16.1667 52.5417ZM12.125 80.8333C12.125 81.9053 12.5508 82.9333 13.3088 83.6912C14.0667 84.4492 15.0947 84.875 16.1667 84.875H40.4167C41.4886 84.875 42.5166 84.4492 43.2746 83.6912C44.0325 82.9333 44.4583 81.9053 44.4583 80.8333V64.6667C44.4583 63.5947 44.0325 62.5667 43.2746 61.8088C42.5166 61.0508 41.4886 60.625 40.4167 60.625H16.1667C15.0947 60.625 14.0667 61.0508 13.3088 61.8088C12.5508 62.5667 12.125 63.5947 12.125 64.6667V80.8333ZM52.5417 80.8333C52.5417 81.9053 52.9675 82.9333 53.7254 83.6912C54.4834 84.4492 55.5114 84.875 56.5833 84.875H80.8333C81.9053 84.875 82.9333 84.4492 83.6912 83.6912C84.4492 82.9333 84.875 81.9053 84.875 80.8333V52.5417C84.875 51.4697 84.4492 50.4417 83.6912 49.6838C82.9333 48.9258 81.9053 48.5 80.8333 48.5H56.5833C55.5114 48.5 54.4834 48.9258 53.7254 49.6838C52.9675 50.4417 52.5417 51.4697 52.5417 52.5417V80.8333ZM56.5833 40.4167H80.8333C81.9053 40.4167 82.9333 39.9908 83.6912 39.2329C84.4492 38.4749 84.875 37.4469 84.875 36.375V16.1667C84.875 15.0947 84.4492 14.0667 83.6912 13.3088C82.9333 12.5508 81.9053 12.125 80.8333 12.125H56.5833C55.5114 12.125 54.4834 12.5508 53.7254 13.3088C52.9675 14.0667 52.5417 15.0947 52.5417 16.1667V36.375C52.5417 37.4469 52.9675 38.4749 53.7254 39.2329C54.4834 39.9908 55.5114 40.4167 56.5833 40.4167Z" fill="black"/>
</svg>
