<svg width="97" height="97" viewBox="0 0 97 97" fill="none" xmlns="http://www.w3.org/2000/svg">
<path d="M20.2084 48.5H12.125C7.67919 48.5 4.04169 52.1375 4.04169 56.5833V80.8333C4.04169 85.2792 7.67919 88.9167 12.125 88.9167H20.2084C24.6542 88.9167 28.2917 85.2792 28.2917 80.8333V56.5833C28.2917 52.1375 24.6542 48.5 20.2084 48.5Z" fill="black"/>
<path d="M52.5417 8.08334H44.4583C40.0125 8.08334 36.375 11.7208 36.375 16.1667V80.8334C36.375 85.2792 40.0125 88.9167 44.4583 88.9167H52.5417C56.9875 88.9167 60.625 85.2792 60.625 80.8334V16.1667C60.625 11.7208 56.9875 8.08334 52.5417 8.08334Z" fill="black"/>
<path d="M84.875 32.3333H76.7917C72.3459 32.3333 68.7084 35.9708 68.7084 40.4167V80.8333C68.7084 85.2792 72.3459 88.9167 76.7917 88.9167H84.875C89.3209 88.9167 92.9584 85.2792 92.9584 80.8333V40.4167C92.9584 35.9708 89.3209 32.3333 84.875 32.3333Z" fill="black"/>
</svg>
