<svg width="97" height="97" viewBox="0 0 97 97" fill="none" xmlns="http://www.w3.org/2000/svg">
<path d="M82.1878 19.1135C81.6755 18.6043 81.0723 18.3482 80.3751 18.3482C80.028 18.3482 79.296 18.6331 78.1835 19.1954C77.0695 19.7592 75.8873 20.3867 74.643 21.0869C73.3957 21.7826 71.9194 22.4131 70.2159 22.9769C68.5138 23.5392 66.9376 23.8241 65.4871 23.8241C64.1473 23.8241 62.9651 23.5695 61.9466 23.0587C58.5683 21.4764 55.6295 20.2957 53.1348 19.5167C50.6401 18.7392 47.9574 18.3482 45.0853 18.3482C40.1262 18.3482 34.4774 19.9608 28.1452 23.18C26.8387 23.8317 25.902 24.3364 25.2958 24.7062L24.6941 20.2942C26.0536 19.1135 26.9311 17.3933 26.9311 15.4518C26.9311 11.8946 24.0484 9.0119 20.4913 9.0119C16.9341 9.0119 14.0514 11.8946 14.0514 15.4518C14.0514 17.7722 15.2911 19.7895 17.1311 20.9232L25.8308 84.7159C26.09 86.6149 27.7147 87.9926 29.5805 87.9926C29.7502 87.9926 29.923 87.982 30.0973 87.9593C32.1707 87.6744 33.6226 85.7662 33.3392 83.6928L29.8427 58.053C36.1871 54.905 41.6751 53.3182 46.2917 53.3182C48.2514 53.3182 50.1626 53.6107 52.0253 54.2018C53.8896 54.7944 55.44 55.437 56.6738 56.1327C57.9075 56.8299 59.364 57.4755 61.0388 58.0636C62.7166 58.6547 64.3731 58.9502 66.0085 58.9502C70.1401 58.9502 75.0886 57.3937 80.8556 54.2821C81.58 53.9062 82.1105 53.5364 82.4454 53.1742C82.7804 52.812 82.9486 52.2966 82.9486 51.6267V20.9247C82.9486 20.229 82.6955 19.6243 82.1878 19.1135Z" fill="black"/>
</svg>
